# xmcd
#
# Track frame offsets:
#	150
#	9510
#	20486
#	31219
#	44268
#	58950
#	71735
#	85979
#	97292
#	106810
#	120514
#	130503
#	144443
#	159647
#	179466
#	191286
#	201749
#	219572
#	235735
#	252914
#	268054
#	284317
#	298885
#	316207
#	332100
#
# Disc length: 4581 seconds
#
# Revision: 1
# Processed by: cddbd v1.5.1PL0 Copyright (c) Steve Scherf et al.
# Submitted via: EasyCDDAExtractor 7.0.6.1
#
DISCID=7c11e319
DTITLE=Frankie Laine - Frankie Laine Memories In Gold
DYEAR=1900
DGENRE=Country
TTITLE0=Rawhide
TTITLE1=Hummingbird
TTITLE2=A Woman In Love
TTITLE3=Moonlight Gambler
TTITLE4=Jealousy
TTITLE5=High Noon
TTITLE6=Don't Fence Me In
TTITLE7=Rose Rose I Love You
TTITLE8=Blazing Sadles
TTITLE9=Memories In Gold
TTITLE10=On The Sunny Side Of The Street
TTITLE11=Cool Water
TTITLE12=We'll Be Together Again
TTITLE13=You Gave Me A Mountain
TTITLE14=That's My Desire
TTITLE15=I Believe
TTITLE16=Evergreen
TTITLE17=Fallen Angel
TTITLE18=If I Never Sing Another Song
TTITLE19=Better To Have Loved
TTITLE20=Fever
TTITLE21=there Must Be A Reason
TTITLE22=This Can't Be Love
TTITLE23=She Never Could Dance
TTITLE24=Answer Me My Love
EXTD=
EXTT0=
EXTT1=
EXTT2=
EXTT3=
EXTT4=
EXTT5=
EXTT6=
EXTT7=
EXTT8=
EXTT9=
EXTT10=
EXTT11=
EXTT12=
EXTT13=
EXTT14=
EXTT15=
EXTT16=
EXTT17=
EXTT18=
EXTT19=
EXTT20=
EXTT21=
EXTT22=
EXTT23=
EXTT24=
PLAYORDER=
